<?xml version="1.0" encoding="utf-8"?>
<!-- Generator: Adobe Illustrator 27.3.1, SVG Export Plug-In . SVG Version: 6.00 Build 0)  -->
<svg version="1.1" id="Calque_1" xmlns="http://www.w3.org/2000/svg" xmlns:xlink="http://www.w3.org/1999/xlink" x="0px" y="0px"
	 viewBox="0 0 98 96" style="enable-background:new 0 0 98 96;" xml:space="preserve">
<style type="text/css">
	.st0{fill-rule:evenodd;clip-rule:evenodd;fill:#FFFFFF;}
	.st1{fill-rule:evenodd;clip-rule:evenodd;fill:#24292F;}
</style>
<g>
	<path class="st0" d="M57.7,69.3c1.7,1.5,3.2,4.4,3.2,8.9c0,6.4-0.1,11.6-0.1,13.2c0,1.1,0.7,2.5,2.5,2.4C58.8,95.2,54,96,49,96
		c-5,0-9.8-0.8-14.4-2.2c1.9,0.1,2.6-1.2,2.6-2.4c0-1.1-0.1-4.9-0.1-8.9c-13.3,2.9-16.1-5.7-16.1-5.7c-2.1-5.6-5.3-7-5.3-7
		c-4.3-2.9,0.3-2.9,0.3-2.9c4.8,0.3,7.4,4.9,7.4,4.9c4.3,7.3,11.1,5.3,13.9,4c0.4-3.1,1.7-5.3,3-6.4C29.8,68.2,18.6,64,18.6,45.5
		c0-5.3,1.9-9.5,4.9-12.9c-0.5-1.2-2.1-6.1,0.5-12.7c0,0,4-1.3,13.1,4.9C41,23.8,45,23.2,49,23.2c4,0,8.1,0.6,11.9,1.6
		c9.1-6.2,13.1-4.9,13.1-4.9c2.6,6.6,0.9,11.5,0.5,12.7c3.1,3.3,4.9,7.6,4.9,12.9C79.5,64,68.3,68.1,57.7,69.3z"/>
	<path class="st1" d="M96.7,48.1L96.7,48.1c0,0.6,0,1.2,0,1.8c0,0.6,0,1.2-0.1,1.8c0,0.4-0.1,0.8-0.1,1.2
		C94.6,72,81.6,87.8,64.1,93.7c-0.3,0.1-0.5,0.1-0.7,0.1c-1.8,0.1-2.5-1.2-2.5-2.4c0-1.6,0.1-6.8,0.1-13.2c0-4.5-1.5-7.4-3.2-8.9
		c10.7-1.2,21.8-5.3,21.8-23.7c0-5.3-1.8-9.5-4.9-12.9c0.5-1.2,2.1-6.1-0.5-12.7c0,0-4-1.3-13.1,4.9c-3.8-1-7.9-1.6-11.9-1.6
		c-4,0-8,0.5-11.9,1.6C28,18.6,24,19.9,24,19.9c-2.6,6.6-0.9,11.5-0.5,12.7c-3,3.3-4.9,7.6-4.9,12.9c0,18.5,11.1,22.6,21.7,23.7
		c-1.3,1.2-2.6,3.3-3,6.4c-2.8,1.3-9.6,3.3-13.9-4c0,0-2.5-4.6-7.4-4.9c0,0-4.7,0-0.3,2.9c0,0,3.2,1.4,5.3,7c0,0,2.8,8.6,16.1,5.7
		c0,4,0.1,7.8,0.1,8.9c0,1.1-0.7,2.5-2.6,2.4c-0.2,0-0.4,0-0.7-0.1C17.2,88.1,4.5,73.3,1.9,55.3c-0.1-0.4-0.1-0.8-0.2-1.2
		c0-0.3-0.1-0.7-0.1-1.1c0-0.1,0-0.2,0-0.2c0-0.4-0.1-0.7-0.1-1.1c-0.1-0.6-0.1-1.2-0.1-1.8c0-0.6,0-1.2,0-1.8v-0.1
		c0-1.3,0-2.5,0.1-3.7c0-0.4,0.1-0.8,0.1-1.2c0.8-8.5,3.9-16.3,8.5-22.9c0,0,0,0,0,0c0.5-0.6,0.9-1.2,1.4-1.8c0,0,0,0,0,0
		c0.7-0.9,1.4-1.8,2.2-2.6c0.5-0.6,1-1.1,1.6-1.7c1.3-1.4,2.8-2.6,4.3-3.8c0.9-0.7,1.8-1.4,2.8-2c0,0,0,0,0,0
		c0.6-0.4,1.3-0.8,1.9-1.3c2.3-1.4,4.7-2.6,7.3-3.6C32.3,3,33,2.8,33.7,2.5c1.5-0.5,3-0.9,4.5-1.3C38.6,1.1,39,1.1,39.4,1
		c0.8-0.2,1.6-0.3,2.3-0.4c0.4-0.1,0.8-0.1,1.2-0.2C45,0.1,47,0,49,0c2.9,0,5.7,0.3,8.4,0.8C58.2,0.9,59,1,59.8,1.2c0,0,0,0,0,0
		c0.8,0.2,1.5,0.4,2.3,0.6c0.4,0.1,0.8,0.2,1.1,0.3c14.6,4.5,26.1,15.9,31,30.4c0.3,0.7,0.5,1.5,0.7,2.2c0,0,0,0,0,0.1
		c0.8,2.7,1.3,5.4,1.6,8.2C96.6,44.7,96.7,46.4,96.7,48.1z"/>
</g>
</svg>
