<?xml version="1.0" encoding="utf-8"?>
<!-- Generator: Adobe Illustrator 27.3.1, SVG Export Plug-In . SVG Version: 6.00 Build 0)  -->
<svg version="1.1" id="Capa_1" xmlns="http://www.w3.org/2000/svg" xmlns:xlink="http://www.w3.org/1999/xlink" x="0px" y="0px"
	 viewBox="0 0 512 512" style="enable-background:new 0 0 512 512;" xml:space="preserve">
<style type="text/css">
	.st0{fill:#470137;}
	.st1{fill:#FF61F6;}
</style>
<g>
	<g id="Layer_2_8_">
		<g id="Surfaces_9_">
			<g id="UI_UX_Surface">
				<g id="Outline_no_shadow_9_">
					<path class="st0" d="M90.7,6.4h330.7C471.4,6.4,512,47,512,97.1v317.9c0,50.1-40.6,90.7-90.7,90.7H90.7
						C40.6,505.6,0,465,0,414.9V97.1C0,47,40.6,6.4,90.7,6.4L90.7,6.4z"/>
				</g>
			</g>
		</g>
		<g id="Outlined_Mnemonics_Logos_8_">
			<g id="Xd">
				<path class="st1" d="M269.2,137.7l-63.9,105.4l68.4,112c0.4,0.8,0.6,1.7,0.3,2.6c-0.2,0.8-1,0.3-2.4,0.5h-48.8
					c-3.4,0-5.8-0.1-7.2-2.4c-4.6-8.9-9.2-17.8-13.7-26.6c-4.6-8.8-9.4-17.8-14.6-27c-5.2-9.2-10.2-18.4-15.3-27.8h-0.3
					c-4.6,9.2-9.3,18.3-14.3,27.5c-4.9,9.2-9.8,18.3-14.6,27.3c-4.8,9-9.7,18-14.8,27c-0.9,2.1-2.5,2.3-4.8,2.3H76.1
					c-0.9,0-1.4,0.4-1.5-0.6c-0.1-0.8,0.1-1.7,0.5-2.4l66.3-108.9L76.8,137.3c-0.7-0.9-0.8-1.7-0.3-2.2c0.5-0.6,1.3-0.9,2.1-0.9H127
					c1.1-0.1,2.1,0.1,3.1,0.5c0.8,0.5,1.5,1.1,2.1,1.9c4.1,9.2,8.7,18.3,13.7,27.5c5,9.2,10.1,18.2,15.3,27.1
					c5.2,8.9,9.9,18,14.3,27.1h0.3c4.6-9.4,9.2-18.5,13.9-27.5c4.7-8.9,9.5-17.9,14.4-27c4.9-9,9.7-18,14.3-27
					c0.3-0.8,0.7-1.6,1.4-2.2c0.8-0.4,1.8-0.6,2.7-0.5h45c1.1-0.3,2.1,0.4,2.4,1.4C270,136.4,269.7,137.2,269.2,137.7L269.2,137.7z"
					/>
				<path class="st1" d="M367.7,362.7c-15.8,0.2-31.5-3-45.9-9.6c-13.4-6.2-24.6-16.3-32.1-29c-7.8-12.9-11.7-29.1-11.7-48.6
					c-0.1-15.8,3.9-31.3,11.7-45c8-14,19.8-25.4,34-33c14.9-8.2,32.9-12.4,53.9-12.4c1.1,0,2.6,0.1,4.5,0.2c1.8,0.1,4,0.3,6.5,0.5
					v-67.7c0-1.6,0.7-2.4,2.1-2.4H434c1-0.1,1.9,0.5,2.1,1.5c0,0.2,0,0.3,0,0.5v203c0,3.9,0.2,8.1,0.5,12.7
					c0.3,4.6,0.6,8.7,0.9,12.4c0.1,1.5-0.7,2.8-2.1,3.4c-11.2,4.7-22.8,8.1-34.7,10.3C389.8,361.6,378.8,362.6,367.7,362.7
					L367.7,362.7z M388.7,320.1v-93.8c-1.9-0.5-3.8-0.8-5.7-1c-2.3-0.2-4.7-0.3-7-0.3c-8.3-0.1-16.6,1.8-24,5.5
					c-7.3,3.6-13.5,9.1-18,15.8c-4.7,6.9-7,15.9-7,27.1c-0.2,7.5,1.1,14.9,3.6,22c2.1,5.7,5.4,10.8,9.6,15.1c4.1,3.9,9,6.9,14.4,8.6
					c5.7,1.8,11.7,2.8,17.7,2.7c3.2,0,6.2-0.1,8.9-0.3C383.7,321.2,386.2,320.8,388.7,320.1L388.7,320.1z"/>
			</g>
		</g>
	</g>
</g>
</svg>
