<?xml version="1.0" encoding="utf-8"?>
<!-- Generator: Adobe Illustrator 27.3.1, SVG Export Plug-In . SVG Version: 6.00 Build 0)  -->
<svg version="1.1" id="Calque_1" xmlns="http://www.w3.org/2000/svg" xmlns:xlink="http://www.w3.org/1999/xlink" x="0px" y="0px"
	 viewBox="0 0 675.1 550" style="enable-background:new 0 0 675.1 550;" xml:space="preserve">
<style type="text/css">
	.st0{fill:#265787;}
	.st1{fill:#EA7600;}
	.st2{fill:#FFFFFF;}
</style>
<path class="st0" d="M511.4,369.8c-16.7,16.3-40.4,26.5-67,26.5s-50.3-10.2-67-26.5c-16.4-16-25.7-37.5-24.4-60.7
	c1.3-22.6,12.3-42.5,29-56.6c16.4-13.9,38.4-22.3,62.4-22.3c24,0,46,8.5,62.4,22.3c16.7,14.1,27.7,34,29,56.5
	C537,332.3,527.7,353.9,511.4,369.8z"/>
<path class="st1" d="M675.1,306.9c-4-28.1-13.7-54.4-28.7-78.4c-13.7-22.1-31.3-41.4-52.3-57.6l0,0L382.7,8.4
	c-0.2-0.1-0.3-0.3-0.5-0.4C368.3-2.7,345-2.7,329.7,8c-15.4,10.8-17.2,28.6-3.5,39.9l-0.1,0.1l88.2,71.7L145.5,120h-0.4
	c-22.2,0-43.6,14.6-47.8,33c-4.3,18.8,10.8,34.4,33.9,34.4l0,0.1l136.3-0.3L24.2,374c-0.3,0.2-0.7,0.5-0.9,0.7
	C0.4,392.2-7,421.4,7.4,439.9c14.7,18.8,45.9,18.8,69,0.1l132.7-108.6c0,0-1.9,14.7-1.8,23.5c0.2,8.8,3,26,7.2,39.4
	c8.9,28.4,24,54.7,44.9,77.8c21.5,23.8,48,42.9,78.6,56.5c32.2,14.2,67,21.5,103.2,21.5c36.2,0,71-7.5,103.2-21.8
	c30.6-13.7,57.1-32.9,78.6-56.7c21-23.2,36-49.5,44.9-77.9c4.5-14.3,7.3-28.9,8.4-43.5C677.6,335.7,677.1,321.3,675.1,306.9z
	 M577.7,358.1c-6.1,16.7-15.8,32.3-29.2,45.9c-27.3,27.9-65.6,43.7-107.1,43.8c-41.5,0.1-79.8-15.6-107.1-43.4
	c-13.4-13.6-23.2-29.2-29.2-45.8c-5.9-16.3-8.2-33.7-6.7-51.1c1.5-17.1,6.5-33.4,14.7-48.1c8-14.5,19-27.6,32.5-38.7
	c26.6-21.7,60.4-33.4,95.8-33.4c35.4,0,69.2,11.6,95.9,33.2c13.5,11,24.5,24.1,32.5,38.6c8.2,14.7,13.2,31,14.7,48.1
	C585.9,324.5,583.6,341.8,577.7,358.1z"/>
<path class="st2" d="M584.4,307c-1.5-17.1-6.6-33.4-14.7-48.1c-8-14.5-19-27.5-32.5-38.6c-26.6-21.6-60.4-33.2-95.9-33.2
	c-35.4,0-69.2,11.8-95.8,33.4c-13.6,11.1-24.6,24.2-32.5,38.7c-8.1,14.8-13.2,31.1-14.7,48.1c-1.5,17.5,0.8,34.8,6.7,51.1
	c6.1,16.6,15.9,32.2,29.2,45.8c27.3,27.8,65.6,43.5,107.1,43.4c41.4-0.1,79.7-15.9,107.1-43.8c13.4-13.6,23.2-29.2,29.2-45.9
	C583.6,341.8,585.9,324.5,584.4,307z M511.4,369.8c-16.7,16.3-40.4,26.5-67,26.5s-50.3-10.2-67-26.5c-16.4-16-25.7-37.5-24.4-60.7
	c1.3-22.6,12.3-42.5,29-56.6c16.4-13.9,38.4-22.3,62.4-22.3c24,0,46,8.5,62.4,22.3c16.7,14.1,27.7,34,29,56.5
	C537,332.3,527.7,353.9,511.4,369.8z"/>
</svg>
