<?xml version="1.0" encoding="utf-8"?>
<!-- Generator: Adobe Illustrator 27.3.1, SVG Export Plug-In . SVG Version: 6.00 Build 0)  -->
<svg version="1.1" id="icons" xmlns="http://www.w3.org/2000/svg" xmlns:xlink="http://www.w3.org/1999/xlink" x="0px" y="0px"
	 viewBox="0 0 512 512" style="enable-background:new 0 0 512 512;" xml:space="preserve">
<style type="text/css">
	.st0{fill:#191919;}
	.st1{fill:#9DB0BF;}
</style>
<g>
	<path class="st0" d="M448,74.7H64c-11.8,0-21.3,9.6-21.3,21.3v320c0,11.8,9.6,21.3,21.3,21.3h384c11.8,0,21.3-9.6,21.3-21.3V96
		C469.3,84.2,459.8,74.7,448,74.7z M242.9,262.8c-0.5,0.6-1,1.2-1.6,1.6l-106.7,85.3c-4.7,3.5-11.4,2.6-14.9-2.1
		c-3.4-4.5-2.7-10.9,1.6-14.5l96-77l-96-77c-4.7-3.5-5.7-10.2-2.1-14.9c3.5-4.7,10.2-5.7,14.9-2.1c0.2,0.1,0.4,0.3,0.5,0.4
		l106.7,85.3C245.9,251.5,246.6,258.2,242.9,262.8z M384,352H256c-5.9,0-10.7-4.8-10.7-10.7c0-5.9,4.8-10.7,10.7-10.7h128
		c5.9,0,10.7,4.8,10.7,10.7C394.7,347.2,389.9,352,384,352z"/>
	<path class="st1" d="M394.7,341.3c0,5.9-4.8,10.7-10.7,10.7H256c-5.9,0-10.7-4.8-10.7-10.7c0-5.9,4.8-10.7,10.7-10.7h128
		C389.9,330.6,394.7,335.4,394.7,341.3z"/>
	<path class="st1" d="M242.9,262.8c-0.5,0.6-1,1.2-1.6,1.6l-106.7,85.3c-4.7,3.5-11.4,2.6-14.9-2.1c-3.4-4.5-2.7-10.9,1.6-14.5
		l96-77l-96-77c-4.7-3.5-5.7-10.2-2.1-14.9c3.5-4.7,10.2-5.7,14.9-2.1c0.2,0.1,0.4,0.3,0.5,0.4l106.7,85.3
		C245.9,251.5,246.6,258.2,242.9,262.8z"/>
</g>
</svg>
