<?xml version="1.0" encoding="utf-8"?>
<!-- Generator: Adobe Illustrator 27.3.1, SVG Export Plug-In . SVG Version: 6.00 Build 0)  -->
<svg version="1.1" id="Icons" xmlns="http://www.w3.org/2000/svg" xmlns:xlink="http://www.w3.org/1999/xlink" x="0px" y="0px"
	 viewBox="0 0 512 512" style="enable-background:new 0 0 512 512;" xml:space="preserve">
<style type="text/css">
	.st0{fill:#292D60;}
	.st1{fill:#3B437F;}
	.st2{fill:#AAC7C8;}
	.st3{fill:#FFFFFF;}
</style>
<path class="st0" d="M8.5,59.7V384c0,27.4,75.6,49.8,170.7,51.1l187.7-153.5V59.7H8.5z"/>
<ellipse class="st1" cx="187.7" cy="59.7" rx="179.2" ry="51.2"/>
<path class="st1" d="M8.5,281.5c0,28.3,80.2,51.2,179.2,51.2s179.2-22.9,179.2-51.2V170.7c0,28.3-80.2,51.2-179.2,51.2
	S8.5,198.9,8.5,170.7V281.5z"/>
<path class="st2" d="M196.3,281.6h290.1c9.4,0,17.1,7.6,17.1,17.1v187.7c0,9.4-7.6,17.1-17.1,17.1H196.3c-9.4,0-17.1-7.6-17.1-17.1
	V298.7C179.2,289.2,186.8,281.6,196.3,281.6z"/>
<g>
	<path class="st3" d="M341.3,332.8c-18.9,0-34.1,15.3-34.1,34.1v51.2c0,18.9,15.3,34.1,34.1,34.1c6.1,0,12-1.7,17.2-4.8l2.3,2.3
		c3.4,3.3,8.8,3.2,12.1-0.2c3.2-3.3,3.2-8.6,0-11.9l-2.3-2.3c3.1-5.2,4.8-11.2,4.8-17.2v-51.2C375.5,348.1,360.2,332.8,341.3,332.8
		L341.3,332.8z M355.9,420.6c-3.4-3.3-8.8-3.2-12.1,0.2c-3.2,3.3-3.2,8.6,0,11.9l1.9,1.9c-1.4,0.4-2.9,0.6-4.4,0.6
		c-9.4,0-17.1-7.6-17.1-17.1v-51.2c0-9.4,7.6-17.1,17.1-17.1s17.1,7.6,17.1,17.1v51.2c0,1.5-0.2,2.9-0.6,4.4L355.9,420.6z"/>
	<path class="st3" d="M256,349.9c9.4,0,17.1,7.6,17.1,17.1c0,4.7,3.8,8.5,8.5,8.5s8.5-3.8,8.5-8.5c0-18.9-15.3-34.1-34.1-34.1
		c-18.9,0-34.1,15.3-34.1,34.1c0,18.9,15.3,34.1,34.1,34.1c9.4,0,17.1,7.6,17.1,17.1s-7.6,17.1-17.1,17.1c-9.4,0-17.1-7.6-17.1-17.1
		c0-4.7-3.8-8.5-8.5-8.5s-8.5,3.8-8.5,8.5c0,18.9,15.3,34.1,34.1,34.1c18.9,0,34.1-15.3,34.1-34.1c0-18.9-15.3-34.1-34.1-34.1
		c-9.4,0-17.1-7.6-17.1-17.1S246.6,349.9,256,349.9z"/>
	<path class="st3" d="M452.3,435.2h-42.7v-93.9c0-4.7-3.8-8.5-8.5-8.5s-8.5,3.8-8.5,8.5v102.4c0,4.7,3.8,8.5,8.5,8.5h51.2
		c4.7,0,8.5-3.8,8.5-8.5C460.8,439,457,435.2,452.3,435.2z"/>
</g>
</svg>
