<?xml version="1.0" encoding="utf-8"?>
<!-- Generator: Adobe Illustrator 27.3.1, SVG Export Plug-In . SVG Version: 6.00 Build 0)  -->
<svg version="1.1" id="Capa_1" xmlns="http://www.w3.org/2000/svg" xmlns:xlink="http://www.w3.org/1999/xlink" x="0px" y="0px"
	 viewBox="0 0 512 512" style="enable-background:new 0 0 512 512;" xml:space="preserve">
<style type="text/css">
	.st0{fill:#B14796;}
	.st1{fill:#FFFFFF;}
	.st2{font-family:'Roboto-BoldItalic';}
	.st3{font-size:196.6474px;}
</style>
<g>
	<path class="st0" d="M483.8,361.5c0,8.4-1.8,15.9-5.3,22.3c-3.7,6.6-9.2,12.1-16.7,16.5c-60.6,35-121.4,69.8-182,104.8
		c-16.3,9.4-32.2,9.1-48.4-0.5c-24.1-14.2-145-83.5-181-104.3c-7.5-4.4-13.1-9.9-16.7-16.5c-3.6-6.4-5.3-13.9-5.3-22.3
		c0-70.3,0-140.6,0-211c0-17.1,7.2-30.2,22-38.8c36-20.9,156.9-90.1,181-104.3c16.2-9.6,32.1-9.9,48.4-0.5
		c60.6,35,121.3,69.9,182,104.8c7.3,4.2,12.8,9.6,16.5,16c3.7,6.5,5.6,14.1,5.6,22.8C483.8,220.8,483.8,361.5,483.8,361.5z"/>
	<text transform="matrix(1 0 0 1 52.7273 332.4673)" class="st1 st2 st3">WPF</text>
</g>
</svg>
